<?xml version="1.0" encoding="utf-8"?>
<!-- Generator: Adobe Illustrator 18.0.0, SVG Export Plug-In . SVG Version: 6.00 Build 0)  -->
<!DOCTYPE svg PUBLIC "-//W3C//DTD SVG 1.1//EN" "http://www.w3.org/Graphics/SVG/1.1/DTD/svg11.dtd">
<svg version="1.1" xmlns="http://www.w3.org/2000/svg" xmlns:xlink="http://www.w3.org/1999/xlink" x="0px" y="0px"
	 viewBox="0 0 612 792" enable-background="new 0 0 612 792" xml:space="preserve">
<g id="background">
	<rect x="-144" y="0" fill="#231F20" width="900" height="215.3"/>
</g>
<g id="about">
	<rect x="220" y="192" fill="none" width="180" height="170"/>
	
		<text transform="matrix(1 0 0 1 219.9995 291.958)" display="none" fill="#FFFFFF" font-family="'HelveticaNeueLTStd-Hv'" font-size="140">?</text>
	<g display="none">
		<path display="inline" fill="#FFFFFF" d="M-88.7,42.2h-17.1c0.1-7.6,2.4-13.6,7-17.9c4.6-4.3,10.8-6.4,18.6-6.4
			c6.6,0,12.4,1.7,17.2,5.2c4.8,3.5,7.2,8.4,7.2,14.7c0,4.4-0.9,7.7-2.7,10c-1.8,2.3-4.9,4.8-9.3,7.6c-2.6,1.7-4.3,3.2-5.1,4.4
			c-0.8,1.3-1.3,3.3-1.3,6.2h-15.4v-4.9c0-2.3,0.5-4.5,1.4-6.3c0.9-1.9,1.8-3.3,2.7-4.2c0.9-0.9,2.2-1.9,3.8-3.1
			c0.1-0.1,0.6-0.5,1.4-1c0.8-0.5,1.3-0.9,1.5-1c0.2-0.2,0.6-0.5,1.3-1c0.7-0.5,1.1-0.8,1.3-1.1c0.2-0.2,0.5-0.6,0.9-1.1
			c0.4-0.5,0.7-0.9,0.8-1.4c0.1-0.4,0.3-0.9,0.4-1.5c0.1-0.6,0.2-1.1,0.2-1.7c0-1.8-0.6-3.3-1.8-4.3c-1.2-1.1-2.7-1.6-4.5-1.6
			c-5.3,0-8.1,2.8-8.4,8.4V42.2z"/>
		<circle display="inline" fill="#FFFFFF" cx="-81.9" cy="78.4" r="7.9"/>
	</g>
	<g>
		<path fill="#FFFFFF" d="M7.3,51.1H-5.2c0-5.6,1.8-9.9,5.1-13.1c3.4-3.1,7.9-4.7,13.6-4.7c4.9,0,9,1.3,12.6,3.8
			c3.5,2.5,5.3,6.1,5.3,10.7c0,3.2-0.7,5.6-2,7.3c-1.3,1.7-3.6,3.5-6.8,5.5c-1.9,1.2-3.2,2.3-3.7,3.2c-0.6,0.9-0.9,2.4-1,4.5H6.6
			v-3.6c0-1.7,0.3-3.3,1-4.6c0.7-1.4,1.3-2.4,2-3c0.7-0.6,1.6-1.4,2.8-2.2c0.1-0.1,0.4-0.3,1-0.7c0.6-0.4,1-0.6,1.1-0.7
			c0.1-0.1,0.5-0.4,0.9-0.7c0.5-0.4,0.8-0.6,0.9-0.8c0.1-0.2,0.4-0.4,0.7-0.8c0.3-0.4,0.5-0.7,0.6-1c0.1-0.3,0.2-0.7,0.3-1.1
			c0.1-0.4,0.1-0.8,0.1-1.2c0-1.3-0.4-2.4-1.3-3.2c-0.9-0.8-2-1.2-3.3-1.2c-3.9,0-5.9,2-6.1,6.1V51.1z"/>
		<circle fill="#FFFFFF" cx="12.3" cy="77.6" r="5.7"/>
	</g>
</g>
<g id="contact">
	<g display="none">
		<path display="inline" fill="#FFFFFF" d="M581.3,40.8l19.3,13.9c1.3,1,3.5,1,4.9,0l19.3-13.9c0.1-0.1,0.2-0.1,0.2-0.2
			c-0.6-0.3-1.2-0.4-1.9-0.4h-40c-0.7,0-1.3,0.1-1.9,0.4C581.2,40.7,581.2,40.7,581.3,40.8z"/>
		<path display="inline" fill="#FFFFFF" d="M626.4,43.2l-21,15.2c-1.3,1-3.5,1-4.9,0l-21-15.2c-0.3-0.2-0.5-0.4-0.8-0.7
			c-0.5,0.8-0.8,1.7-0.8,2.7v26.2c0,2.8,2.2,5,5,5h40c2.8,0,5-2.2,5-5V45.2c0-1-0.3-1.9-0.8-2.7C627,42.8,626.7,43,626.4,43.2z"/>
	</g>
	<g display="none">
		<g display="inline">
			<path fill="#FFFFFF" d="M637,67.2c0,2.8-2.2,5-5,5h-40c-2.8,0-5-2.2-5-5V41c0-2.8,2.2-5,5-5h40c2.8,0,5,2.2,5,5V67.2z"/>
		</g>
		<g display="inline">
			<g>
				<g>
					<path fill="#231F20" d="M614.4,54.2c-1.3,1-3.5,1-4.9,0l-21-15.2c-1.3-1-2-2.3-1.6-3c0.5-0.7,2-0.4,3.3,0.5l19.3,13.9
						c1.3,1,3.5,1,4.9,0l19.3-13.9c1.3-1,2.8-1.2,3.3-0.5c0.5,0.7-0.2,2-1.6,3L614.4,54.2z"/>
				</g>
			</g>
		</g>
		<polyline display="inline" fill="none" stroke="#231F20" stroke-width="3" points="637,36 612,54.1 587,36 		"/>
	</g>
	<g display="none">
		<g display="inline">
			<g>
				<path fill="#231F20" d="M614.4,54.2c-1.3,1-3.5,1-4.9,0l-21-15.2c-1.3-1-2-2.3-1.5-3c0.5-0.7,2-0.4,3.3,0.5l19.3,13.9
					c1.3,1,3.5,1,4.9,0l19.3-13.9c1.3-1,2.8-1.2,3.3-0.5c0.5,0.7-0.2,2-1.5,3L614.4,54.2z"/>
			</g>
		</g>
	</g>
	<g>
		<path fill="#FFFFFF" d="M609.6,54.7c1.3,1,3.5,1,4.9,0l20.2-14.4c-0.2,0-0.4-0.1-0.7-0.1h-44c-0.1,0-0.2,0-0.3,0L609.6,54.7z"/>
		<path fill="#FFFFFF" d="M614.4,58.4c-1.3,1-3.5,1-4.9,0l-22.4-16.3c-0.1,0.3-0.2,0.7-0.2,1.1v30.2c0,1.6,1.3,3,3,3h44
			c1.7,0,3-1.4,3-3V43.2c0-0.3-0.1-0.6-0.1-0.8L614.4,58.4z"/>
	</g>
</g>
<g id="refresh_sources">
	<circle display="none" fill="#FFFFFF" cx="125" cy="55" r="22.5"/>
	<circle display="none" fill="#231F20" cx="125" cy="55" r="10"/>
	<polygon display="none" fill="#FFFFFF" points="169.4,49.1 190.7,49.1 190.7,27.8 	"/>
	<path display="none" fill="#FFFFFF" d="M181.5,3.5H169c0.3,12,10,21.7,22,22V13C185.9,12.8,181.8,8.7,181.5,3.5z"/>
	<g display="none">
		<polygon display="inline" fill="#FFFFFF" points="78.8,55.2 62.1,71.9 78.8,88.6 		"/>
		<path display="inline" fill="#FFFFFF" d="M78.2,28.9c-13.6,0-24.7,10.9-25,24.4h13.9c0.3-5.9,5.1-10.6,11.1-10.6
			c6.1,0,11.1,5,11.1,11.1c0,5.9-4.7,10.8-10.6,11.1v13.9c13.6-0.3,24.5-11.4,24.5-25C103.2,40.1,92,28.9,78.2,28.9z"/>
	</g>
	<path fill="#FFFFFF" d="M103.2,53.5c0-13.8-11.2-25-25-25c-13.6,0-24.7,10.9-25,24.4h13.9c0.3-5.9,5.1-10.6,11.1-10.6
		c6.1,0,11.1,5,11.1,11.1c0,5.9-4.7,10.8-10.5,11.1v-9.9L62.1,71.4l16.7,16.7v-9.7C92.4,78.1,103.2,67.1,103.2,53.5z"/>
	<path fill="#FFFFFF" d="M170.2,53.5c0-13.8-11.2-25-25-25c-13.6,0-24.7,10.9-25,24.4h13.9c0.3-5.9,5.1-10.6,11.1-10.6
		c6.1,0,11.1,5,11.1,11.1c0,5.9-4.7,10.8-10.5,11.1v-9.9l-16.7,16.7l16.7,16.7v-9.7C159.4,78.1,170.2,67.1,170.2,53.5z"/>
	<path fill="#FFFFFF" d="M237.2,53.5c0-13.8-11.2-25-25-25c-13.6,0-24.7,10.9-25,24.4h13.9c0.3-5.9,5.1-10.6,11.1-10.6
		c6.1,0,11.1,5,11.1,11.1c0,5.9-4.7,10.8-10.5,11.1v-9.9l-16.7,16.7l16.7,16.7v-9.7C226.4,78.1,237.2,67.1,237.2,53.5z"/>
</g>
<g id="switch">
	<polygon display="none" fill="#FFFFFF" points="289.8,55.2 273.1,71.9 289.8,88.6 	"/>
	<rect x="289.8" y="64.9" display="none" fill="#FFFFFF" width="33.3" height="13.9"/>
	<polygon display="none" fill="#FFFFFF" points="342.1,64.9 308.8,64.9 308.8,55.2 292.1,71.9 308.8,88.6 308.8,78.8 342.1,78.8 	
		"/>
	<polygon display="none" fill="#FFFFFF" points="285,53 299.4,53 299.4,62.8 316.1,46 299.4,29.3 299.4,39.1 285,39.1 	"/>
	<polygon display="none" fill="#FFFFFF" points="297.3,55 282.9,55 282.9,45.2 266.1,62 282.9,78.7 282.9,68.9 297.3,68.9 	"/>
	<rect x="266.1" y="17.8" display="none" fill="#FFFFFF" width="50" height="11.2"/>
	<polygon display="none" fill="#58595B" points="291.1,73 324.4,73 324.4,82.8 341.1,66 324.4,49.3 324.4,59.1 291.1,59.1 	"/>
	<polygon display="none" fill="#FFFFFF" points="341.1,75 307.9,75 307.9,65.2 291.1,82 307.9,98.7 307.9,88.9 341.1,88.9 	"/>
	<polyline display="none" fill="none" stroke="#231F20" stroke-width="4" points="415.3,71 405.4,80.9 405.4,71.1 	"/>
	<polyline display="none" fill="none" stroke="#231F20" stroke-width="4" points="378.9,73.3 388.9,63.4 388.9,73.2 	"/>
	<g>
		<polygon fill="#FFFFFF" points="304,59.3 291.4,71.9 291.4,59.3 276.9,59.3 276.9,49.5 260.1,66.3 276.9,83 276.9,73.2 
			310.1,73.2 310.1,59.3 		"/>
		<polygon fill="#A6A8AB" points="310.1,50.3 293.4,33.6 293.4,43.4 260.1,43.4 260.1,57.3 266.3,57.3 278.9,44.7 278.9,57.3 
			293.4,57.3 293.4,67.1 		"/>
	</g>
</g>
<g id="save_this_cut_up">
	<polygon display="none" fill="#FFFFFF" points="343.2,33.8 343.2,67 333.4,67 350.1,83.8 366.9,67 357.1,67 357.1,33.8 	"/>
	<polygon fill="#FFFFFF" points="357.1,66.6 357.1,33.3 350.1,33.3 350.1,83.3 366.9,66.6 	"/>
	<polygon fill="#A6A8AB" points="343.2,66.6 343.2,33.3 350.1,33.3 350.1,83.3 333.4,66.6 	"/>
</g>
<g id="view_saved_cut_ups">
	<g>
		<polygon fill="#A6A8AB" points="395.4,50 395.4,83.3 402.4,83.3 402.4,33.3 385.6,50 		"/>
		<polygon fill="#FFFFFF" points="409.3,50 409.3,83.3 402.4,83.3 402.4,33.3 419.1,50 		"/>
	</g>
</g>
<g id="share_this_cut-up_on_facebook">
	<path display="none" fill="#3C5A98" d="M585-24c0,4.4-3.6,8-8,8H453c-4.4,0-8-3.6-8-8v-124c0-4.4,3.6-8,8-8h124c4.4,0,8,3.6,8,8
		V-24z"/>
	<path display="none" fill="#FFFFFF" d="M525-26v-51.5h-13.6V-96H525c0,0,0-7.6,0-15.8c0-12.4,8-23.9,26.6-23.9c7.5,0,13,0.7,13,0.7
		l-0.4,17.3c0,0-5.7-0.1-11.8-0.1c-6.7,0-7.8,3.1-7.8,8.2c0,4,0-8.6,0,13.5h20.1l-0.9,18.5h-19.2V-26H525z"/>
	<path fill="#FFFFFF" d="M487.1,33.3h-44.3c-1.6,0-2.9,1.3-2.9,2.9v44.3c0,1.6,1.3,2.9,2.9,2.9h44.3c1.6,0,2.9-1.3,2.9-2.9V36.2
		C490,34.6,488.7,33.3,487.1,33.3z M482.4,61.4h-6.9v18.4h-7V61.4h-4.9v-6.6h4.9c0,0,0-2.7,0-5.7c0-4.4,2.9-8.5,9.5-8.5
		c2.7,0,4.7,0.3,4.7,0.3l-0.2,6.2c0,0-2,0-4.2,0c-2.4,0-2.8,1.1-2.8,2.9c0,0.2,0,0.3,0,0.3c0,0.5,0,1.8,0,4.5h7.2L482.4,61.4z"/>
</g>
<g id="share_this_cut-up_on_twitter">
	<path display="none" fill="#FFFFFF" d="M811.5-101.7h-44.3c-1.6,0-2.9,1.3-2.9,2.9v44.3c0,1.6,1.3,2.9,2.9,2.9h44.3
		c1.6,0,2.9-1.3,2.9-2.9v-44.3C814.3-100.4,813-101.7,811.5-101.7z"/>
	<path display="none" fill="#33CCFF" d="M799.2-66.7h-9.9c-1.4,0-2.5-0.5-3.5-1.4c-1-1-1.4-2.1-1.4-3.5v-5h14.8
		c1.4,0,2.6-0.5,3.5-1.5c1-1,1.5-2.2,1.5-3.5c0-1.4-0.5-2.5-1.5-3.5c-1-1-2.2-1.5-3.5-1.5h-14.8v-5c0-1.4-0.5-2.5-1.5-3.5
		c-1-1-2.1-1.5-3.5-1.5c-1.4,0-2.6,0.5-3.6,1.4c-1,1-1.5,2.1-1.5,3.6v20c0,4.1,1.5,7.6,4.4,10.6c2.9,2.9,6.4,4.4,10.6,4.4h9.9
		c1.4,0,2.5-0.5,3.5-1.5c1-1,1.5-2.2,1.5-3.5c0-1.4-0.5-2.5-1.5-3.5C801.8-66.2,800.6-66.7,799.2-66.7z"/>
	<path display="none" fill="#FFFFFF" d="M395.7-52.3c6.2-0.8,11.8-3.6,16.4-8.2c5.6-5.5,8.5-12.6,8.5-20.4c0-7.8-2.9-14.9-8.5-20.4
		c-5.5-5.5-12.6-8.4-20.4-8.4h-28.1c0-7.7-2.9-14.7-8.4-20.2c-5.5-5.5-12.5-8.5-20.3-8.5c-7.8,0-14.9,2.9-20.4,8.3
		c-5.6,5.5-8.5,12.6-8.5,20.6v57.3c0,15.8,5.7,29.4,16.8,40.6c11.2,11.2,24.8,16.8,40.6,16.8h28.4c7.8,0,14.8-2.9,20.4-8.5
		c5.5-5.5,8.5-12.6,8.5-20.4c0-7.8-2.9-14.8-8.5-20.4C407.5-48.7,401.9-51.5,395.7-52.3z"/>
	<path display="none" fill="#33CCFF" d="M391.7-38.1h-28.4c-3.9,0-7.3-1.4-10.1-4.1c-2.8-2.8-4.1-6.1-4.1-10.1v-14.2h42.6
		c3.9,0,7.3-1.4,10.1-4.2c2.8-2.8,4.2-6.2,4.2-10.1c0-3.9-1.4-7.3-4.2-10.1c-2.8-2.8-6.2-4.2-10.2-4.2H349v-14.4
		c0-3.9-1.4-7.3-4.2-10.1c-2.8-2.8-6.2-4.2-10.1-4.2c-4,0-7.4,1.4-10.2,4.1c-2.8,2.8-4.2,6.2-4.2,10.2v57.3
		c0,11.8,4.2,21.9,12.6,30.3c8.4,8.4,18.5,12.6,30.3,12.6h28.4c3.9,0,7.3-1.4,10.1-4.2c2.8-2.8,4.2-6.2,4.2-10.1
		c0-3.9-1.4-7.3-4.2-10.1C399-36.6,395.6-38.1,391.7-38.1z"/>
	<path fill="#FFFFFF" d="M559.5,33.3h-44.3c-1.6,0-2.9,1.3-2.9,2.9v44.3c0,1.6,1.3,2.9,2.9,2.9h44.3c1.6,0,2.9-1.3,2.9-2.9V36.2
		C562.3,34.6,561,33.3,559.5,33.3z M533.8,66.8c1,1,2.1,1.4,3.5,1.4h9.9c1.4,0,2.6,0.5,3.5,1.5c1,1,1.5,2.2,1.5,3.5
		s-0.5,2.5-1.5,3.5c-1,1-2.2,1.5-3.5,1.5h-9.9c-4.1,0-7.6-1.5-10.6-4.4c-2.9-2.9-4.4-6.4-4.4-10.6v-20c0-1.4,0.5-2.6,1.5-3.6
		c1-1,2.2-1.4,3.6-1.4c1.4,0,2.5,0.5,3.5,1.5c1,1,1.5,2.2,1.5,3.5v5h14.8c1.4,0,2.6,0.5,3.5,1.5c1,1,1.5,2.2,1.5,3.5
		c0,1.4-0.5,2.5-1.5,3.5c-1,1-2.2,1.5-3.5,1.5h-14.8v5C532.4,64.7,532.9,65.9,533.8,66.8z"/>
</g>
<g id="shuffle">
	<polygon fill="#FFFFFF" points="357.1,66.6 357.1,33.3 350.1,33.3 350.1,83.3 366.9,66.6 	"/>
	<polygon fill="#A6A8AB" points="343.2,66.6 343.2,33.3 350.1,33.3 350.1,83.3 333.4,66.6 	"/>
	<g>
		<polygon fill="#FFFFFF" points="681,30.4 671.2,40.1 676.9,40.1 676.9,59.5 681,59.5 681,59.5 685,59.5 685,40.1 690.7,40.1 
			681,30.4 681,30.4 681,30.4 681,30.4 		"/>
		<polygon fill="#FFFFFF" points="706,55.4 696.2,45.7 696.2,51.4 676.9,51.4 676.9,55.4 676.9,55.4 676.9,59.5 696.2,59.5 
			696.2,65.1 706,55.4 706,55.4 706,55.4 706,55.4 		"/>
		<polygon fill="#FFFFFF" points="656,55.4 665.7,65.1 665.7,59.5 685,59.5 685,55.4 685,55.4 685,51.4 665.7,51.4 665.7,45.7 
			656,55.4 656,55.4 656,55.4 656,55.4 		"/>
		<polygon fill="#FFFFFF" points="681,80.4 690.7,70.7 685,70.7 685,51.4 681,51.4 681,51.4 676.9,51.4 676.9,70.7 671.2,70.7 
			681,80.4 681,80.4 681,80.4 681,80.4 		"/>
	</g>
</g>
</svg>
